<svg xmlns="http://www.w3.org/2000/svg" width="1600" height="1100" viewBox="0 0 1600 1100" preserveAspectRatio="xMidYMid slice"><polygon points="0.0,0.0 235.5,0.0 129.5,198.7" fill="rgba(255,255,255,0.039)"></polygon><polygon points="0.0,0.0 129.5,198.7 0.0,164.5" fill="rgba(0,0,0,0.029)"></polygon><polygon points="235.5,0.0 312.2,0.0 129.5,198.7" fill="rgba(0,0,0,0.084)"></polygon><polygon points="312.2,0.0 411.9,149.7 129.5,198.7" fill="rgba(255,255,255,0.042)"></polygon><polygon points="312.2,0.0 590.7,0.0 586.7,104.6" fill="rgba(0,0,0,0.038)"></polygon><polygon points="312.2,0.0 586.7,104.6 411.9,149.7" fill="rgba(0,0,0,0.066)"></polygon><polygon points="590.7,0.0 712.4,0.0 586.7,104.6" fill="rgba(0,0,0,0.080)"></polygon><polygon points="712.4,0.0 727.4,205.4 586.7,104.6" fill="rgba(255,255,255,0.042)"></polygon><polygon points="712.4,0.0 939.3,0.0 873.8,199.0" fill="rgba(0,0,0,0.038)"></polygon><polygon points="712.4,0.0 873.8,199.0 727.4,205.4" fill="rgba(255,255,255,0.046)"></polygon><polygon points="939.3,0.0 1012.4,0.0 873.8,199.0" fill="rgba(255,255,255,0.044)"></polygon><polygon points="1012.4,0.0 1015.3,205.9 873.8,199.0" fill="rgba(0,0,0,0.056)"></polygon><polygon points="1012.4,0.0 1203.8,0.0 1233.6,191.0" fill="rgba(255,255,255,0.017)"></polygon><polygon points="1012.4,0.0 1233.6,191.0 1015.3,205.9" fill="rgba(0,0,0,0.074)"></polygon><polygon points="1203.8,0.0 1451.4,0.0 1233.6,191.0" fill="rgba(255,255,255,0.024)"></polygon><polygon points="1451.4,0.0 1482.0,157.2 1233.6,191.0" fill="rgba(0,0,0,0.047)"></polygon><polygon points="1451.4,0.0 1600.0,0.0 1600.0,145.9" fill="rgba(255,255,255,0.007)"></polygon><polygon points="1451.4,0.0 1600.0,145.9 1482.0,157.2" fill="rgba(0,0,0,0.040)"></polygon><polygon points="0.0,164.5 129.5,198.7 0.0,342.1" fill="rgba(0,0,0,0.026)"></polygon><polygon points="129.5,198.7 212.4,262.9 0.0,342.1" fill="rgba(0,0,0,0.064)"></polygon><polygon points="129.5,198.7 411.9,149.7 376.2,318.0" fill="rgba(0,0,0,0.065)"></polygon><polygon points="129.5,198.7 376.2,318.0 212.4,262.9" fill="rgba(255,255,255,0.036)"></polygon><polygon points="411.9,149.7 586.7,104.6 376.2,318.0" fill="rgba(0,0,0,0.032)"></polygon><polygon points="586.7,104.6 550.7,328.1 376.2,318.0" fill="rgba(255,255,255,0.016)"></polygon><polygon points="586.7,104.6 727.4,205.4 736.0,317.2" fill="rgba(255,255,255,0.043)"></polygon><polygon points="586.7,104.6 736.0,317.2 550.7,328.1" fill="rgba(0,0,0,0.077)"></polygon><polygon points="727.4,205.4 873.8,199.0 736.0,317.2" fill="rgba(255,255,255,0.021)"></polygon><polygon points="873.8,199.0 937.5,303.5 736.0,317.2" fill="rgba(0,0,0,0.054)"></polygon><polygon points="873.8,199.0 1015.3,205.9 1031.0,348.0" fill="rgba(0,0,0,0.082)"></polygon><polygon points="873.8,199.0 1031.0,348.0 937.5,303.5" fill="rgba(255,255,255,0.047)"></polygon><polygon points="1015.3,205.9 1233.6,191.0 1031.0,348.0" fill="rgba(255,255,255,0.032)"></polygon><polygon points="1233.6,191.0 1243.7,267.5 1031.0,348.0" fill="rgba(0,0,0,0.034)"></polygon><polygon points="1233.6,191.0 1482.0,157.2 1471.3,337.7" fill="rgba(255,255,255,0.043)"></polygon><polygon points="1233.6,191.0 1471.3,337.7 1243.7,267.5" fill="rgba(255,255,255,0.036)"></polygon><polygon points="1482.0,157.2 1600.0,145.9 1471.3,337.7" fill="rgba(255,255,255,0.041)"></polygon><polygon points="1600.0,145.9 1600.0,343.0 1471.3,337.7" fill="rgba(255,255,255,0.039)"></polygon><polygon points="0.0,342.1 212.4,262.9 126.4,507.9" fill="rgba(0,0,0,0.058)"></polygon><polygon points="0.0,342.1 126.4,507.9 0.0,513.1" fill="rgba(255,255,255,0.032)"></polygon><polygon points="212.4,262.9 376.2,318.0 126.4,507.9" fill="rgba(0,0,0,0.067)"></polygon><polygon points="376.2,318.0 357.9,512.8 126.4,507.9" fill="rgba(255,255,255,0.023)"></polygon><polygon points="376.2,318.0 550.7,328.1 597.9,510.8" fill="rgba(0,0,0,0.066)"></polygon><polygon points="376.2,318.0 597.9,510.8 357.9,512.8" fill="rgba(0,0,0,0.066)"></polygon><polygon points="550.7,328.1 736.0,317.2 597.9,510.8" fill="rgba(0,0,0,0.026)"></polygon><polygon points="736.0,317.2 650.7,437.2 597.9,510.8" fill="rgba(0,0,0,0.045)"></polygon><polygon points="736.0,317.2 937.5,303.5 935.2,463.3" fill="rgba(0,0,0,0.032)"></polygon><polygon points="736.0,317.2 935.2,463.3 650.7,437.2" fill="rgba(0,0,0,0.028)"></polygon><polygon points="937.5,303.5 1031.0,348.0 935.2,463.3" fill="rgba(255,255,255,0.037)"></polygon><polygon points="1031.0,348.0 1004.6,470.1 935.2,463.3" fill="rgba(255,255,255,0.026)"></polygon><polygon points="1031.0,348.0 1243.7,267.5 1294.7,487.8" fill="rgba(255,255,255,0.010)"></polygon><polygon points="1031.0,348.0 1294.7,487.8 1004.6,470.1" fill="rgba(0,0,0,0.043)"></polygon><polygon points="1243.7,267.5 1471.3,337.7 1294.7,487.8" fill="rgba(255,255,255,0.020)"></polygon><polygon points="1471.3,337.7 1417.1,419.8 1294.7,487.8" fill="rgba(0,0,0,0.021)"></polygon><polygon points="1471.3,337.7 1600.0,343.0 1600.0,487.6" fill="rgba(255,255,255,0.045)"></polygon><polygon points="1471.3,337.7 1600.0,487.6 1417.1,419.8" fill="rgba(0,0,0,0.055)"></polygon><polygon points="0.0,513.1 126.4,507.9 0.0,609.7" fill="rgba(255,255,255,0.048)"></polygon><polygon points="126.4,507.9 112.7,684.9 0.0,609.7" fill="rgba(255,255,255,0.019)"></polygon><polygon points="126.4,507.9 357.9,512.8 300.0,610.3" fill="rgba(0,0,0,0.073)"></polygon><polygon points="126.4,507.9 300.0,610.3 112.7,684.9" fill="rgba(255,255,255,0.017)"></polygon><polygon points="357.9,512.8 597.9,510.8 300.0,610.3" fill="rgba(0,0,0,0.044)"></polygon><polygon points="597.9,510.8 566.0,639.4 300.0,610.3" fill="rgba(255,255,255,0.048)"></polygon><polygon points="597.9,510.8 650.7,437.2 678.4,578.0" fill="rgba(255,255,255,0.010)"></polygon><polygon points="597.9,510.8 678.4,578.0 566.0,639.4" fill="rgba(0,0,0,0.054)"></polygon><polygon points="650.7,437.2 935.2,463.3 678.4,578.0" fill="rgba(255,255,255,0.031)"></polygon><polygon points="935.2,463.3 883.7,611.8 678.4,578.0" fill="rgba(0,0,0,0.030)"></polygon><polygon points="935.2,463.3 1004.6,470.1 1027.3,623.1" fill="rgba(0,0,0,0.076)"></polygon><polygon points="935.2,463.3 1027.3,623.1 883.7,611.8" fill="rgba(0,0,0,0.073)"></polygon><polygon points="1004.6,470.1 1294.7,487.8 1027.3,623.1" fill="rgba(255,255,255,0.021)"></polygon><polygon points="1294.7,487.8 1252.7,612.2 1027.3,623.1" fill="rgba(255,255,255,0.013)"></polygon><polygon points="1294.7,487.8 1417.1,419.8 1397.2,657.2" fill="rgba(255,255,255,0.010)"></polygon><polygon points="1294.7,487.8 1397.2,657.2 1252.7,612.2" fill="rgba(255,255,255,0.048)"></polygon><polygon points="1417.1,419.8 1600.0,487.6 1397.2,657.2" fill="rgba(255,255,255,0.010)"></polygon><polygon points="1600.0,487.6 1600.0,644.1 1397.2,657.2" fill="rgba(255,255,255,0.046)"></polygon><polygon points="0.0,609.7 112.7,684.9 239.1,747.0" fill="rgba(255,255,255,0.028)"></polygon><polygon points="0.0,609.7 239.1,747.0 0.0,762.8" fill="rgba(0,0,0,0.027)"></polygon><polygon points="112.7,684.9 300.0,610.3 239.1,747.0" fill="rgba(0,0,0,0.072)"></polygon><polygon points="300.0,610.3 290.5,750.1 239.1,747.0" fill="rgba(0,0,0,0.030)"></polygon><polygon points="300.0,610.3 566.0,639.4 536.9,740.2" fill="rgba(255,255,255,0.024)"></polygon><polygon points="300.0,610.3 536.9,740.2 290.5,750.1" fill="rgba(255,255,255,0.047)"></polygon><polygon points="566.0,639.4 678.4,578.0 536.9,740.2" fill="rgba(255,255,255,0.039)"></polygon><polygon points="678.4,578.0 755.3,739.1 536.9,740.2" fill="rgba(0,0,0,0.058)"></polygon><polygon points="678.4,578.0 883.7,611.8 902.7,733.9" fill="rgba(0,0,0,0.081)"></polygon><polygon points="678.4,578.0 902.7,733.9 755.3,739.1" fill="rgba(0,0,0,0.034)"></polygon><polygon points="883.7,611.8 1027.3,623.1 902.7,733.9" fill="rgba(255,255,255,0.033)"></polygon><polygon points="1027.3,623.1 1010.8,752.8 902.7,733.9" fill="rgba(0,0,0,0.049)"></polygon><polygon points="1027.3,623.1 1252.7,612.2 1203.2,787.4" fill="rgba(0,0,0,0.084)"></polygon><polygon points="1027.3,623.1 1203.2,787.4 1010.8,752.8" fill="rgba(0,0,0,0.054)"></polygon><polygon points="1252.7,612.2 1397.2,657.2 1203.2,787.4" fill="rgba(255,255,255,0.014)"></polygon><polygon points="1397.2,657.2 1424.1,773.5 1203.2,787.4" fill="rgba(0,0,0,0.063)"></polygon><polygon points="1397.2,657.2 1600.0,644.1 1600.0,750.9" fill="rgba(0,0,0,0.038)"></polygon><polygon points="1397.2,657.2 1600.0,750.9 1424.1,773.5" fill="rgba(255,255,255,0.046)"></polygon><polygon points="0.0,762.8 239.1,747.0 0.0,954.9" fill="rgba(0,0,0,0.084)"></polygon><polygon points="239.1,747.0 233.3,893.0 0.0,954.9" fill="rgba(0,0,0,0.078)"></polygon><polygon points="239.1,747.0 290.5,750.1 353.7,887.5" fill="rgba(255,255,255,0.014)"></polygon><polygon points="239.1,747.0 353.7,887.5 233.3,893.0" fill="rgba(0,0,0,0.079)"></polygon><polygon points="290.5,750.1 536.9,740.2 353.7,887.5" fill="rgba(255,255,255,0.012)"></polygon><polygon points="536.9,740.2 590.8,888.1 353.7,887.5" fill="rgba(0,0,0,0.069)"></polygon><polygon points="536.9,740.2 755.3,739.1 759.8,978.3" fill="rgba(255,255,255,0.019)"></polygon><polygon points="536.9,740.2 759.8,978.3 590.8,888.1" fill="rgba(255,255,255,0.049)"></polygon><polygon points="755.3,739.1 902.7,733.9 759.8,978.3" fill="rgba(0,0,0,0.028)"></polygon><polygon points="902.7,733.9 944.3,925.5 759.8,978.3" fill="rgba(255,255,255,0.013)"></polygon><polygon points="902.7,733.9 1010.8,752.8 1090.6,985.8" fill="rgba(255,255,255,0.038)"></polygon><polygon points="902.7,733.9 1090.6,985.8 944.3,925.5" fill="rgba(0,0,0,0.064)"></polygon><polygon points="1010.8,752.8 1203.2,787.4 1090.6,985.8" fill="rgba(0,0,0,0.090)"></polygon><polygon points="1203.2,787.4 1213.2,973.0 1090.6,985.8" fill="rgba(0,0,0,0.070)"></polygon><polygon points="1203.2,787.4 1424.1,773.5 1480.1,917.0" fill="rgba(255,255,255,0.040)"></polygon><polygon points="1203.2,787.4 1480.1,917.0 1213.2,973.0" fill="rgba(0,0,0,0.038)"></polygon><polygon points="1424.1,773.5 1600.0,750.9 1480.1,917.0" fill="rgba(255,255,255,0.014)"></polygon><polygon points="1600.0,750.9 1600.0,958.7 1480.1,917.0" fill="rgba(0,0,0,0.087)"></polygon><polygon points="0.0,954.9 233.3,893.0 127.4,1100.0" fill="rgba(255,255,255,0.020)"></polygon><polygon points="0.0,954.9 127.4,1100.0 0.0,1100.0" fill="rgba(255,255,255,0.024)"></polygon><polygon points="233.3,893.0 353.7,887.5 127.4,1100.0" fill="rgba(255,255,255,0.045)"></polygon><polygon points="353.7,887.5 341.1,1100.0 127.4,1100.0" fill="rgba(0,0,0,0.029)"></polygon><polygon points="353.7,887.5 590.8,888.1 588.3,1100.0" fill="rgba(255,255,255,0.049)"></polygon><polygon points="353.7,887.5 588.3,1100.0 341.1,1100.0" fill="rgba(0,0,0,0.059)"></polygon><polygon points="590.8,888.1 759.8,978.3 588.3,1100.0" fill="rgba(255,255,255,0.038)"></polygon><polygon points="759.8,978.3 762.1,1100.0 588.3,1100.0" fill="rgba(255,255,255,0.011)"></polygon><polygon points="759.8,978.3 944.3,925.5 897.3,1100.0" fill="rgba(0,0,0,0.034)"></polygon><polygon points="759.8,978.3 897.3,1100.0 762.1,1100.0" fill="rgba(0,0,0,0.021)"></polygon><polygon points="944.3,925.5 1090.6,985.8 897.3,1100.0" fill="rgba(255,255,255,0.027)"></polygon><polygon points="1090.6,985.8 1076.3,1100.0 897.3,1100.0" fill="rgba(0,0,0,0.081)"></polygon><polygon points="1090.6,985.8 1213.2,973.0 1253.4,1100.0" fill="rgba(255,255,255,0.006)"></polygon><polygon points="1090.6,985.8 1253.4,1100.0 1076.3,1100.0" fill="rgba(255,255,255,0.019)"></polygon><polygon points="1213.2,973.0 1480.1,917.0 1253.4,1100.0" fill="rgba(255,255,255,0.032)"></polygon><polygon points="1480.1,917.0 1479.9,1100.0 1253.4,1100.0" fill="rgba(255,255,255,0.014)"></polygon><polygon points="1480.1,917.0 1600.0,958.7 1600.0,1100.0" fill="rgba(255,255,255,0.013)"></polygon><polygon points="1480.1,917.0 1600.0,1100.0 1479.9,1100.0" fill="rgba(0,0,0,0.053)"></polygon></svg>